<svg xmlns="http://www.w3.org/2000/svg" version="1.1" xmlns:xlink="http://www.w3.org/1999/xlink" xmlns:svgjs="http://svgjs.dev/svgjs" viewBox="0 0 800 800"><defs><linearGradient x1="50%" y1="0%" x2="50%" y2="100%" id="ssscribble-grad"><stop stop-color="hsl(50, 98%, 60%)" stop-opacity="1" offset="0%"></stop><stop stop-color="hsl(50, 98%, 80%)" stop-opacity="1" offset="100%"></stop></linearGradient></defs><g fill="none" stroke-width="1.5" stroke="url(#ssscribble-grad)" stroke-linecap="round"><path d="M1272.94 252.43C1464.6 283.08 1505.39 322.19 1365.65 370.25 1159.39 419.46 1049.78 479.4 1114.06 550.5 1297.1 622.62 1451.72 703.59 1462.71 788.49 1321.58 863.77 1124.56 929.06 998.87 972.56 1015.8 986.58 1151.18 966.05 1307.95 909.97 1390.06 837.29 1342.98 758.46 1194.51 700.38 1015.76 693.12 892.42 747.91 868.78 866.18 942.87 1017.13 1065.78 1162.75 1175.21 1251.57 1228.48 1249.71 1199.15 1158.75 1101.2 1019.91 960.79 912.4 820.46 896.43 711.42 999.95 647.46 1178.89 634.82 1345.73 660.67 1405.39 715.75 1325.01 776.53 1156.8 827.75 1018.04 868.96 1017.45 886.82 1166.48 882.98 1370.54 863.25 1482.49 828.8 1420.25 786.57 1230.79 737.26 1072.97 687.95 1079.43 642.84 1255.33 596.36 1455.31 557.07 1508.21 526.42 1363.02 495.77 1150.28 474.48 1059.83 461.25 1164.82 446.67 1371.54 437.14 1497.94 428.65 1440.06 413.08 1244.72 390.74 1065.58 354.86 1033.12 303.09 1162.31 230.79 1344.48 136.46 1441.44 32.12 1384.32 -80.45 1208.37 -185.86 1025.99 -262.04 940.15 -298.25 990.85 -281.54 1129.7 -219.74 1272.22 -125.04 1329.13 -28.48 1271.91 25.6 1125.1 12.84 955.31 -80.59 828.94 -230.19 783.22 -391.36 822.67 -501.64 914.37 -514.21 1022.78 -424.99 1099.32 -278.16 1121.07 -161.61 1084.6 -144.23 998.61 -253.68 886.42 -437.79 762.15 -598.15 651.25 -637.55 564.45 -534.32 501.18 -357.26 465.02 -233.43 448.35 -261.71 448.36 -430.97 454.98 -625.85 460.67 -701.96 470.66 -601.36 472.92 -401.17 464.97 -267.5 457.27 -311.39 438.35 -503.05 407.71 -681.92 377.05 -695.53 335.39 -536.93 283.4 -335.03 231.65 -249.08 170.56 -337.26 102.77 -526.53 39.27 -665.39 -24.12 -651.04 -79.75 -492.85 -118.7 -298.85 -136.99 -193.06 -126.85 -233.68 -93.18 -381.04 -34.08 -531.71 39.85 -593.77 101.72 -525.01 138.86 -364.98 128.1 -190.03 59.13 -83.16 -63.01 -79.74 -215.28 -169.09 -350.84 -295.55 -432.4 -396.76 -426.88 -433.58 -340.7 -386.68 -209.17 -276.01 -98.54 -130.71 -77.49 5.62 -168.51 104.32 -342.93 154.11 -513.71 153.14 -594.13 116.94 -535.67 55.54 -380.64 -6.5 -229.66 -55.02 -194.97 -90.19 -314.37 -100.49 -516.49 -89 -663.01 -61.18 -647.89 -19.98 -483.41 27.38 -299.87 81.35 -253.78 133.8 -389.16 180.78 -601.95 228.92 -713.05 268.97 -625.77 299.62 -413.04 330.28 -267.8 350.8 -317.53 362.37 -511.43 375.09 -681.3 381.48 -678.79 385.31 -509.17 395.74 -307.86 411.32 -230.94 439.11 -325.57 483.22 -512.32 547.95 -641.43 636.24 -618.4 737.87 -457.19 851.72 -264 963.46 -156.25 1049.99 -188.54 1099.83 -325.66 1097.31 -472.7 1045.86 -544.32 955.15 -494.25 853.71 -350.56 786.87 -175.52 782.04 -46.28 859.02 -4.23 1000.39 -52.85 1165.12 -156.37 1290.67 -263.47 1323.47 -337.9 1250.75 -347.08 1107.73 -292.6 979.59 -187.29 940.51 -59.6 1029.89 63.39 1207.89 169.82 1380.25 242.15 1443.36 281.26 1273.05 285.47 1124.76 219.01 1402.6 192.59 1502.65 179.3 1425.76 178.18 1229.95 188.67 1077.38 200.31 1094.03 221.77 1272.87 252.42Q1272.94 252.43 1272.94 252.43" opacity="0.85"></path><path d="M1161.94 460.24C1335.3 487.06 1402.54 503.92 1323.58 510.94 1069.49 516.16 1095.25 483.91 1315.69 459.28 1361.08 452.83 1283.15 456.15 1124.98 477.36 962.24 521.02 871.69 590.17 885.31 685.1 988.99 792.56 1124.73 906.32 1228.02 1007.99 1257.29 1075.04 1197.21 1095.98 1072.97 1061.48 923.11 984.28 797.08 881.75 725.91 788.25 720.49 745.19 771.71 772.89 853.73 876.65 945.48 1026.01 1015.07 1174.94 1047.47 1266.14 1039.95 1262.33 992.66 1165.46 917.79 1019.97 822.56 905.07 723.77 881.75 631.99 975.28 546.8 1144.23 478.19 1304.99 425.55 1368.6 384.35 1299.68 354.88 1138.08 332.47 984.1 315.92 941.61 300.63 1042.06 283.3 1227.4 267.32 1376.34 246.51 1388.73 219.69 1252.02 192.87 1062.57 160.67 952.62 124.42 992.96 89.51 1153.73 53.31 1322.28 19.29 1388.21 -8.88 1311.25 -29.09 1138.63 -36.55 974.05 -32.57 907.75 -11.6 970.17 27.1 1114.68 72.41 1259.86 125.88 1321.14 177.07 1268.67 207.9 1126.5 212.44 960.81 178.62 840.93 104.88 808.15 -4.62 865.62 -134.74 976.53 -255.14 1095.99 -343.18 1170.45 -372.91 1175.1 -336.89 1109.14 -244.35 992.63 -126.16 859.33 -33.58 734.94 -3.36 648.18 -60.56 607.5 -191.78 612.08 -353.51 650.58 -481.12 705.7 -518.66 770.33 -449.96 824.32 -306.88 859.91 -168.37 879.8 -107.9 877.61 -168.43 857.88 -324.58 824.7 -496.24 782.23 -586.71 736.41 -543.52 685.6 -390.93 637.48 -222.39 595.08 -148.73 551.84 -218.69 516.28 -392.05 489.45 -555.44 462.63 -599.67 445.19 -499.77 436.19 -246.01 424.66 -322.5 414.85 -533.52 395.77 -557.28 366.85 -460.12 321.41 -294.89 255.06 -140.28 172.99 -68.39 73.68 -101.76 -34.98 -217.7 -134.14 -352.85 -215.4 -444.04 -261.34 -454.76 -262.01 -377.65 -215.18 -243.92 -129.18 -94.72 -34.25 21.32 45.43 77.36 76.27 66.7 36.48 3.6 -71.43 -83.61 -222.55 -173.38 -365.14 -234.95 -452.5 -255.96 -447.67 -235.46 -355.73 -176.79 -216.04 -93.7 -97.78 6.41 -69.2 106.18 -152.31 195.89 -317.13 276.38 -481.31 338.99 -561.23 385.37 -510.1 419.71 -360.66 443.18 -200.84 460.78 -134.2 472.71 -210.43 484.66 -386.86 499.87 -552.96 513.85 -598.66 533.68 -491.47 560.5 -302.03 587.32 -165.27 620.5 -174.9 658.76 -318.5 695.79 -498.55 735.32 -591.15 773.97 -538.34 820.05 -286.81 842.27 -235.61 800.77 -456.55 757.54 -530.44 703.1 -485.29 647.01 -346.48 607.96 -177.06 592.05 -54.18 612.88 -22.43 675.23 -85.7 776.72 -204.77 904.86 -322.46 1030.46 -394.55 1130.38 -388.79 1176.2 -310.58 1155.31 -181.93 1072.74 -42.57 955.21 72.99 853.15 145.87 805.91 164.85 844.55 139.14 963.66 78.81 1124.81 7.81 1264.67 -55.61 1321.96 -106.5 1271.93 -130.33 1136.98 -127.51 991.4 -102.25 911.71 -57.92 950.61 -2.82 1094.95 62.46 1271.38 128.14 1381.3 189.31 1360.75 251.99 1220.67 306.61 1046.19 352.05 951.6 397.27 998.55 433.42 1161.94 460.24Q1161.94 460.24 1161.94 460.24" opacity="0.97"></path><path d="M1050.86 438.56C1203.68 461.55 1286.87 492.64 1262.78 531.18 1144.6 569.37 987.9 614.15 863.15 663.73 822 710.67 877.73 758.79 999.71 803.97 1136.58 840.17 1227.27 866.28 1236.96 876.86 1162.87 871.47 1032.17 846.3 891.15 801.2 782.05 747.02 737.26 684.93 761.66 626.43 843 589.41 948.29 580.8 1043.15 611.51 1104.62 682.24 1112.79 787.47 1068.71 911.55 981.6 1026.22 871.47 1109.79 759.72 1138.85 659.3 1106.07 586.8 1018.88 546.22 903.18 536.9 803.07 553.53 752.45 586.36 778.19 632.52 878.46 678.57 1024.06 717.75 1164.29 752.89 1244.43 774.93 1233.37 784.07 1133.16 785.59 990.64 776.6 867.76 760.13 825.7 739.34 890.07 715.02 1034.49 689.71 1192.29 663.27 1285.31 638.06 1265.99 615.07 1140.94 592.08 976.53 571.86 858.77 553.52 844.98 534.05 939.83 514.25 1091.34 491.69 1223.23 464.8 1274.97 431.2 1220.89 387.97 1088.04 337.12 932.54 274.26 819.76 199.27 789.99 120.25 849.44 35.35 966.49 -48.55 1090.24 -119.11 1176.39 -172.39 1189.89 -198.5 1128.81 -193.35 1011.62 -155.08 875.25 -87.54 757.08 -8.69 682.02 69.87 665.04 126.85 699.89 140.79 774.34 103.94 861.71 15.32 939.03 -106.68 994.57 -237.56 1013.12 -342.84 994.87 -391.17 943.85 -368.66 869.35 -280.06 783.54 -159.55 690.57 -47.59 604 9.64 529.33 -16.89 464.21 -122.55 414.33 -272.39 377.5 -407.34 350.28 -474.05 331.34 -441.77 316.7 -325.89 306.51 -175.96 296.05 -62.32 282.77 -42.78 270.49 -128.3 253.32 -281.12 230.33 -426.46 207.34 -491.18 179.08 -446.8 146.58 -315.85 115.08 -159.78 81.42 -48.19 48.26 -26.81 19.54 -99.94 -4.1 -229.8 -18.59 -362.23 -23.46 -438.35 -14.42 -429.57 10.86 -339.8 45.68 -202.11 93.4 -64.6 148.63 32.02 196.7 60.09 234.55 20.26 250.13 -71.1 232.96 -178.11 180.19 -266.79 91.75 -315.96 -18.44 -309.52 -137.39 -252.19 -241.96 -155.42 -306.94 -41.37 -318.65 68.59 -270.74 162.22 -179.72 224.79 -68.94 254.38 24.3 252.63 61.44 226.97 25.67 187.88 -80.98 138.06 -225.23 91.29 -361.01 53.65 -437.31 22.01 -424.4 4.55 -326.58 0.29 -184.06 4.29 -64.18 18.29 -21.07 38.91 -81.69 63.88 -222.46 91.34 -380.73 118.74 -480.13 147.21 -470.88 173.44 -355.45 196.43 -191.04 219.42 -65.99 238.62 -44.34 254.93 -132.81 272.31 -286.07 288.97 -423.72 307.35 -479.22 330.09 -428.29 358.68 -294.43 396.39 -138.94 442.36 -25.76 500.65 0.26 572.12 -63.02 649.6 -186.4 735.23 -313.26 822.79 -393.03 899.63 -398.26 961.93 -325.37 999.12 -201.32 1004.95 -61.68 976.61 51.09 915.87 111.01 838.78 109.1 756.3 54.23 689.66 -30.31 662.46 -124.26 684.72 -197.92 761.04 -235.75 876.85 -233.58 1009.47 -190.74 1124.77 -118.29 1188.53 -24.36 1182.74 74.37 1106.62 166.29 989.61 249.14 870.66 313.16 797.73 358.39 805.8 387.64 896.9 402.36 1042.3 407.87 1185.13 404.4 1269.24 398.87 1256.73 395.28 1154.01 389.05 1004.7 388.41 878.3 394.99 838.47 401.23 905.52 415.57 1050.86 438.56Q1050.86 438.56 1050.86 438.56" opacity="0.25"></path><path d="M939.87 270.04C1114.42 295.78 1065.32 320.57 879.44 324.18 769.24 328.38 711.52 332.95 719.11 340.8 787.39 355.44 891.76 377.85 1000.01 411.19 1084.94 454.99 1121.17 511.99 1101.52 582.18 1031.33 658.59 927.6 741.47 813.86 824.17 709.81 895.19 635.99 950.16 601.36 979.99 607.72 979.94 648.36 948.13 710.53 887.03 785.14 810.63 854.46 728.67 907.8 658.99 942 621.86 950.03 626.6 933.72 679.35 895.87 772.34 841.7 890.11 778.15 1007.48 706.55 1094.75 635.63 1131.33 569.56 1105.07 505.71 1024.59 450.43 910.57 403.88 797.67 361.92 725.28 327.48 716.88 298.92 780.35 273.21 897.74 250.96 1032.83 230.68 1139.92 211.2 1181.01 192.15 1140.26 173 1030.01 153.84 892.01 135.02 777.36 117.19 725.79 100.16 753.76 85.64 848.05 75.22 973.06 67.65 1088.39 66.6 1153.22 73.81 1148.53 85.6 1076.95 106.85 960.55 137.5 833.81 170.37 728.79 208.92 672.61 249.06 674.21 281.16 729.68 304.79 818.85 313.11 915.96 299.9 1000.66 263.35 1049.82 201.74 1054.9 120.99 1016.4 25.37 942.15 -74.34 847.23 -161.62 743.45 -226.18 648.69 -255.15 573.57 -243.14 522.07 -190.66 498.34 -106.55 498.78 -12.76 520.92 72.39 556.21 125.5 596.9 128.06 642.69 76.22 683.23 -22.74 715.03 -145.04 741.77 -261.88 757.22 -340.98 762.31 -359.38 761.42 -310.8 752.58 -208 738.18 -85.25 720.56 20.59 700.35 72.77 679.42 50.64 657.66 -39.85 636.82 -170.12 617.66 -295.13 598.5 -369.93 581.48 -370.96 565.93 -299.68 549.55 -180.02 532.99 -51.08 514.48 49.1 492.75 91.43 466.11 67.87 432.25 -12.63 392.41 -121.94 342.94 -226.98 283 -301.61 218.01 -323.54 145.09 -289.4 67.84 -207.59 -4.29 -97.94 -70.13 15.21 -121.81 112.61 -151.78 175.52 -156.58 197.52 -132.5 178.74 -84.8 128.43 -16.34 60.64 62.32 -15.21 132.13 -81.47 182.48 -128.47 198.38 -153.78 170.69 -152.07 100.21 -126.42 -4.42 -79.95 -121.47 -19.11 -229.22 48.91 -301.78 123.07 -320.5 194.49 -279.94 259.49 -188.98 320.87 -76.29 372.88 27.64 415.88 88.43 453.73 82.34 484.34 8.38 509.61 -114.31 531.94 -246.73 551.55 -346.67 570.04 -378.46 587.74 -330.72 605.87 -218.04 625.03 -80.04 644.19 30.23 663.92 72.96 683.53 35.69 702.35 -67.58 719.51 -197.03 733.32 -307.05 744.17 -363.15 749.05 -345.62 745.96 -262.45 737.72 -138.74 719.73 -12.24 691.55 82.29 659.75 122.61 620.7 101.66 577.99 31.49 541.42 -68.78 511.13 -167.99 494.18 -241.04 498.06 -273.85 524.86 -257.29 577.58 -197.55 651.99 -105.26 744.55 0.61 845.52 102.12 938.42 188.33 1012.64 246.46 1054.05 273.94 1054.67 271.53 1013.08 245.08 935.64 203.6 842.42 150.43 751.34 98.08 686.61 53.13 669.56 14.39 707.11 -10.24 795.78 -20.85 914.86 -21 1036.65 -9.38 1127.97 10.72 1162.33 37.62 1129.16 68.54 1036.36 100.46 914.81 135.05 800.79 167.69 733.3 196.66 738.11 226.18 814.86 250.88 939.87 270.04Q939.87 270.04 939.87 270.04" opacity="0.66"></path><path d="M828.87 596.72C1020.56 627.38 1060.51 667.64 925.86 710.42 721.97 745.19 598.24 766.7 624.59 759.74 770.91 728.5 925.03 661.17 992.16 569.75 942.68 498.67 802.85 468.4 642.6 518.22 509.56 647.38 445.21 823.2 443.17 968.37 491.07 1002.82 554.4 903.76 607.1 726.71 655.62 606.52 677.25 636.33 675.44 816.43 667.29 1011.51 645.48 1064.2 614.83 919.01 584.18 706.26 546.14 614.12 496.48 708.31 440.48 904.85 363.09 1035.01 261.45 1005.43 155.64 840.34 41.83 651.13 -53.31 544.95 -98.51 562.2 -78.17 670.85 14.7 795.16 134.77 886.55 238.25 898.76 255.82 842.47 156.78 735.83 -24.82 614.95 -193.62 507.1 -242.43 407.78 -136.15 335.39 55.9 284.33 178.73 240.72 132.56 206.24 -59.12 175.58 -237.96 144.93 -250.94 119.56 -97.42 105.36 103.66 98.61 206.01 115.22 156.21 161.42 -74.25 251.35 -49.07 326.93 185.35 167.29 330.41 -69.69 249.52 -36.28 163.41 187.2 118.94 194.35 102.62 46.77 108.91 -161.59 122.07 -267.64 146.67 -181.77 177.32 30.95 207.97 176.19 243.23 129.77 287.88 -53.45 339.39 -221.76 411.47 -234.16 509.06 -91.52 614.43 107.99 732.62 234.55 838.58 232.05 898.17 118.82 894.12 -20.65 813.25 -109.66 694.53 -119.32 579.81 -45.07 541.26 73.23 620.83 211.89 794.65 329.71 974.42 414.07 1046.69 474.16 961.79 508.42 772.53 531.47 630.84 546.49 650.03 566.08 828.87 596.72Q828.87 596.72 828.87 596.72" opacity="0.54"></path><path d="M717.87 173.77C870.69 196.76 952.31 218.43 929.65 242.16 817.15 270.5 665.73 309.31 537.42 365.22 472.67 433.2 487.34 522.13 561.07 626.93 669.17 725.74 766.8 812.17 827.52 861.75 846.45 858.94 818.32 798.08 758.56 689.63 674.96 576.89 587.09 493.82 507.62 484.09 429.66 563.2 367.29 708.31 320.28 861.76 276.09 951.59 243.1 933.02 220.11 808.01 191.17 584.53 199.98 659.95 248.38 853.56 288.01 919.66 338.03 898.44 386.19 806.9 410.52 673.8 405.64 543.73 356.58 447.47 265.74 394.74 140.85 389.18 8.81 415.01 -88.84 466.04 -124.13 518.84 -76.23 560.43 35.22 599.75 173.55 620.49 277.18 623.83 290.97 623.96 204.69 611.54 51.87 588.55 -93.46 565.56 -156.86 533.1 -114.46 489.62 11.05 442.93 163.25 380.37 281.13 301.22 328.5 219.8 296.79 129.13 211.9 42.66 100.71 -18.6 8.31 -46.06 -41.9 -23.48 -47.21 42.63 -6.52 145.44 62.58 254.61 152.6 322.23 242.98 322.85 322.2 239.93 397.85 98.46 457.11 -52.59 501.41 -145.75 542.49 -135.89 573.69 -22.46 596.68 141.94 619.67 266.99 633.35 290.26 635.64 209.33 634.69 64.75 617.26 -67.28 581.44 -129.56 542.06 -102.99 489.54 0.68 434.95 137.35 401.27 269.74 393.59 357.87 429.03 390.82 509.38 371.37 629.03 317.94 764.16 254.57 872.99 185.19 925.32 134.12 894.8 105.98 793.76 89.91 654.65 92.92 538 107.94 504.47 127.56 572.53 150.78 717.87 173.77Q717.87 173.77 717.87 173.77" opacity="0.68"></path><path d="M606.87 612.76C798.56 643.42 836.65 652.62 714.94 624.17 521.45 577.82 377.98 484.1 331.78 381.63 371.44 350.23 444.02 424.36 496.04 608.48 546.88 789.87 556.49 842.19 525.84 697.01 495.19 484.26 427.18 388.83 323.22 459.89 157.87 695.4 79.33 656.91 305.83 491.28 405.08 383.95 354.56 313.69 162.87 283.03 -15.96 252.37 -27.74 264.22 112.37 318.43 306.5 372 434.73 442.05 462.4 469.99 406.42 405.91 326.6 244.18 273.88 50.81 226 -42.73 219.48 40.21 250.13 252.94 280.79 398.18 345.7 358.32 446.7 199.4 552.55 37.73 680.2 -3.88 776.35 67.67 788.86 210.32 693.15 351.87 521.49 451.34 403.83 532.91 428.03 582.11 606.87 612.76Q606.87 612.76 606.87 612.76" opacity="0.78"></path></g></svg>