<svg xmlns="http://www.w3.org/2000/svg" version="1.1" xmlns:xlink="http://www.w3.org/1999/xlink" xmlns:svgjs="http://svgjs.dev/svgjs" viewBox="0 0 1422 800" opacity="0.16"><defs><linearGradient x1="50%" y1="0%" x2="50%" y2="100%" id="ssscribble-grad"><stop stop-color="hsl(50, 98%, 60%)" stop-opacity="1" offset="0%"></stop><stop stop-color="hsl(50, 98%, 80%)" stop-opacity="1" offset="100%"></stop></linearGradient></defs><g fill="none" stroke-width="1.5" stroke="url(#ssscribble-grad)" stroke-linecap="round"><path d="M1392.94 337.43C1540.19 368.08 1726.24 404.44 1819.92 446.27 1759.26 488.24 1585.06 535.83 1412.87 588.7 1348.93 641.45 1426.61 698.82 1587.06 759.44 1730.76 817.8 1765.67 876.5 1673.17 932.49 1501.68 980.99 1340.78 1021.42 1265 1049.8 1301.5 1064.75 1419.59 1063.58 1552.39 1044.9 1639.13 1014.25 1634.97 970.75 1543.71 919.69 1396.43 873.31 1246.09 835.05 1137.17 814.44 1092.9 821 1116.26 856.94 1185.44 923.67 1278.26 1014.86 1358.34 1121.99 1404.49 1230.74 1410.4 1322.94 1371.84 1385.06 1300.2 1404.71 1203.56 1379.91 1099.61 1314.49 1000.78 1222.55 907.66 1129.65 831.62 1055.94 772.57 1023.08 725.81 1044.55 691.88 1117.75 665.72 1228.38 645.95 1349.84 627.64 1451.99 607.17 1506.72 588.15 1499.48 563.96 1430.27 533.31 1317.43 502.65 1195.99 466.27 1100.72 425.58 1057.13 386.35 1076.33 345.83 1149.19 307.8 1252.74 264.72 1400.89 258.68 1414.7 309.49 1272.38 355.19 1154.49 407.35 1048.98 453.66 974.07 474.97 940.21 464.67 948.89 411.52 992.02 318.13 1060.44 192.42 1135.02 55.74 1200.31 -57.29 1248.17 -122.74 1266.66 -118.63 1254.04 -49.89 1212.64 62.18 1146.98 173.27 1065.69 228.33 973.96 198.36 882.25 79.71 797.23 -85 720.22 -232.79 657.09 -296.63 608.08 -248.19 571.82 -112.27 547.52 36.75 531.92 106.78 524.89 51.9 521.58 -109.08 518.89 -286.83 519.66 -379.14 517.64 -327.04 511.2 -166.67 505.52 -1.49 494.16 53.09 476.55 -46.64 458.98 -235.8 434.98 -383.05 404.34 -382.11 373.68 -234.38 337.1 -46.07 294.97 55.76 252.88 6.86 205.41 -151.64 153.29 -314.86 101.93 -372.59 47.16 -290.54 -9.21 -116.62 -62.13 49.01 -113.27 119.74 -159.36 65.93 -196.88 -71.19 -224.38 -209.85 -238.46 -279.19 -239.78 -239.3 -225.51 -110.58 -195.74 55.51 -157.97 191.22 -111.88 252.77 -64.01 228.09 -26.57 139.89 -3 31.7 -1.76 -60.02 -29.31 -97.21 -86.05 -71.04 -170.1 11.9 -271.58 130.09 -380.29 256.22 -480.63 373.83 -555.68 461.14 -594.08 513.22 -587.57 531.32 -540.01 521.89 -459.48 496.77 -364.06 458.23 -280.59 421.71 -227.75 393.91 -222.89 369.34 -272.42 358.29 -367.27 359.86 -487.13 366.33 -602.51 382.34 -684.42 405.1 -709.69 429.48 -672.18 457.61 -580.03 488.26 -458.6 518.91 -345.75 551.36 -273.41 586.68 -260.09 623.62 -308.74 666.44 -401.87 717.77 -511.5 774 -610.31 841.83 -668.88 922.01 -673.07 1005.42 -622.92 1096.37 -529.26 1188.04 -413.89 1266.29 -299.48 1327.53 -209.08 1359.76 -156.92 1358.03 -149.22 1319.59 -181.63 1249.23 -241.91 1170.34 -318.75 1097.77 -391.75 1058.66 -446.74 1076.33 -477.29 1155.59 -474.98 1287.48 -441.37 1435.85 -380.6 1562.32 -300.25 1623.21 -210.01 1597.87 -115.1 1496.3 -25.97 1362.12 51.91 1265.3 117.84 1255.09 167.87 1351.75 203.26 1598.8 230.9 1635.1 236.21 1405.63 231.33 1340.85 226.32 1413.19 225.73 1588.22 230.78 1758.57 235.72 1816.54 246.95 1720.79 264.69 1538.56 282.56 1393.91 306.77 1392.92 337.42Q1392.94 337.43 1392.94 337.43" opacity="0.71"></path><path d="M1281.94 625.02C1405.59 651.84 1572.04 677.55 1689.48 701.74 1697.68 725.44 1591.74 746.66 1428.3 764.41 1286.82 780.38 1233.99 791.37 1287.18 796.23 1417.35 798.07 1556.61 792.74 1640.12 779.91 1633.05 764.7 1536.2 743.26 1389.86 717.29 1199.19 682.23 1245.77 647.48 1402.51 670.1 1481.37 708.21 1504.28 764.3 1467.43 837.34 1379.47 921.34 1262.3 1012.33 1141.46 1102.16 1033.45 1180.06 957.63 1239.17 918.43 1271.17 914.88 1272.61 939.19 1242.34 979.2 1184.09 1031.03 1110.44 1078.92 1030.96 1115.84 960.81 1144.74 916.99 1157.19 907.55 1154.8 938.29 1142.5 1006.9 1119.67 1102.88 1090.47 1209.7 1056.4 1306.79 1020.82 1375.29 986.61 1399.93 951.28 1376.08 919.64 1306.85 892.82 1206.43 866 1099.4 844.63 1009.33 827.72 954.96 809.69 947.17 793.8 984.83 777.28 1057.33 755.9 1150.65 729.05 1242.17 692.69 1313.26 646.42 1352.53 586.34 1350.44 510.96 1308.46 427.56 1233.8 334.34 1138.67 238.47 1038.03 154.42 944.28 87.36 870.33 49.57 823.09 47.44 805.64 83.34 816.09 152.98 848.34 235.44 898.17 315.78 953.92 368.59 1006.95 370.28 1054.35 313.9 1086.78 203.37 1101.6 65.9 1099.94 -65.82 1080.16 -151.53 1045.25 -163.31 997.31 -97.32 940.3 23.42 878.41 145.84 811.62 220.83 745.49 208.25 682.45 105.08 620.03 -51.63 562.9 -196.94 511.49 -265.27 462.25 -225.25 418.37 -94.11 379.25 58.96 341.64 157.01 307.59 143.5 276.43 20.76 245.72 -148.4 217.05 -272.05 190.23 -280.5 163.41 -169.52 139.08 -2.31 117.54 133.17 96.46 168.06 79.03 90.99 66.06 -125.92 51.7 -148.64 56.87 73.78 77.56 198.09 94.11 241.79 114.92 197.84 137.68 88.78 155.52 -34.19 169.78 -122.26 176.4 -146.33 169.98 -95.08 149.84 12.87 113.12 149.72 59.94 276.85 -9.3 366.62 -91.86 405.75 -180.04 392.61 -269.26 341.41 -350.77 265.13 -414.69 189.32 -455.02 130.92 -465.5 95.39 -446.19 92.83 -398.24 120.01 -328.42 172.71 -251.7 242.74 -178.42 320.52 -123.41 405.21 -101.09 485.5 -116.44 557.41 -170.84 625.71 -257.06 683.42 -361.38 731.55 -465.06 775.82 -547.91 813.17 -593.47 845.62 -591 876.84 -541.95 905.47 -454.62 932.29 -347.59 959.11 -247.16 983.49 -175.2 1004.51 -146.03 1024.3 -165.35 1038.42 -225.94 1044.74 -312.68 1047.18 -409.15 1039.16 -492.33 1019.52 -545.81 996.27 -561.43 963.61 -534.54 925.41 -471.07 894.11 -381.25 869.4 -279.92 860.74 -182.34 877.6 -100.16 922.91 -43.9 999.77 -17.42 1099.51 -21.48 1215.24 -50.72 1329.9 -96.96 1419.47 -155.11 1469.45 -212.63 1465.46 -261.48 1410.85 -299.37 1317.19 -318.63 1212.01 -318.37 1135.72 -300.31 1114.33 -265 1166.33 -216.52 1282.33 -156.77 1431.29 -91.02 1564.28 -23.43 1632.16 46.58 1610.31 113.34 1505.66 175.03 1367.55 234.34 1255.68 287.3 1227.55 334.12 1304.08 377.92 1455.41 416.62 1613.42 451.23 1700.84 484.06 1673.84 514.31 1543.66 542.86 1381.75 570.9 1273.49 598.2 1281.94 625.02Q1281.94 625.02 1281.94 625.02" opacity="0.43"></path><path d="M1170.31 282.35C1270.64 305.34 1412.32 324.04 1536.57 338.74 1596.36 353.66 1567.06 365.03 1462.41 373.5 1320.99 382.98 1194.42 390.68 1124.49 397.79 1131.26 407.58 1206.79 418.75 1319.93 432.97 1434.55 452.3 1509.5 477.07 1523.02 508.87 1472.28 547.63 1371.14 594.67 1247.39 650.23 1127.63 711.33 1039.91 778.74 998.05 850.07 1005.37 919.84 1053.2 986.84 1124.55 1046.42 1206.36 1093.36 1276.39 1125.06 1322.21 1137.82 1340.17 1131.38 1325.34 1104.86 1282.87 1060.09 1217.29 1004.59 1138.5 941.8 1055.71 879.67 970.6 829.44 893.43 796.14 827.34 786.68 769.48 805.6 724.07 851.9 689.1 922.06 661.66 1007.82 640.85 1099.05 623.62 1183.18 609.95 1247.92 596.31 1283.59 580.66 1283.61 565.85 1248.73 547.32 1182.55 524.33 1095.16 501.35 1002.89 474.43 920.76 444.47 861.47 415.34 833.87 384.86 840.42 355.18 878.05 329.05 941.46 307.27 1018 293 1095.3 286.26 1164.44 290.85 1213.12 308.86 1235.3 335.11 1229.7 373.44 1195.97 420.8 1139.15 465.84 1065.03 507.98 982.14 538.13 898.87 545.17 820.88 525.79 755.49 474.93 706.31 396.22 674.89 294.62 661.54 182.68 663.95 81.2 681.24 4.67 707.97 -29.78 739.72 -15.06 776.36 47.05 811.01 142.88 840.75 282.12 876.54 270.92 896.87 92.6 882.84 -37.37 866.05 -127.87 844.12 -147.62 818.69 -90.66 790.31 24.93 760.4 157.47 730.33 253.25 699.02 275.78 668.82 211.45 640.6 82.65 612.09 -61.35 586.13 -161.68 563.14 -176.01 540.15 -98.56 520.68 36.71 504.41 176.63 487.85 267.13 473.93 277.47 461.88 206.48 448.6 85.69 435.92 -37.81 422.6 -122.46 406.31 -136.23 387.41 -76.69 364.36 37.7 336.25 171.4 302.01 286.58 260.52 356.02 213.07 364.81 158.06 318.84 96.01 232.73 30.84 135.72 -38.01 53.99 -107.55 3.28 -172.19 -1.89 -230.49 36.89 -277.9 112.74 -310.44 210.77 -325.79 314.45 -321.51 414.11 -299.48 494.86 -259.68 551.41 -205.63 583.31 -146.3 591.22 -85.68 581.22 -32.06 555.23 4.24 522.92 19.23 490.64 7.98 456.12 -31.04 428.84 -94.68 410.61 -176.8 395.88 -267.07 390.7 -354.59 393.91 -426.87 400.06 -473.37 412.4 -486.69 429.34 -463.63 447.18 -408.89 467.92 -329.09 490.91 -236.82 513.9 -149.43 538.59 -80.93 565.53 -41.49 593.36 -36.97 625.15 -65.87 662.36 -121.74 702.51 -197 750.27 -277.25 806.7 -350.03 866.65 -407.22 934.76 -438.56 1009.12 -440.63 1081.23 -414.31 1152.4 -362.28 1216.13 -291.54 1263.88 -208.92 1292.62 -123.85 1296.14 -44.41 1275.03 24.29 1228.49 76.41 1161.73 109.98 1090.94 124.37 1024.48 121.37 978.76 104.56 970.1 75.11 1003.97 39.67 1081.83 2.79 1190.71 -35.63 1313.31 -68.82 1423.36 -94.49 1493.27 -114.62 1506.75 -125.01 1457.82 -126.03 1363.14 -120.08 1248.18 -106 1150.62 -85.49 1107.93 -59.87 1136.67 -30.22 1234.3 1.69 1370.78 36.29 1502.54 71.17 1582.41 105.05 1580.94 139.94 1497.2 172.69 1361.83 202.55 1231.1 232.63 1155.98 259.36 1170.31 282.35Q1170.31 282.35 1170.31 282.35" opacity="0.21"></path><path d="M1059.92 268.83C1139.56 287.99 1253.71 310.15 1368.6 335.23 1454.22 360.44 1485.32 388.82 1455.34 420.39 1373.09 452.36 1260.23 487.77 1145.22 526.53 1053.36 565.65 1005.03 607.92 1007.04 652.82 1056.58 697.14 1137.84 742.94 1230.06 788.97 1316.11 832.11 1374.95 873.14 1396.4 910.14 1378.39 940.81 1323.75 964.52 1243.32 979.36 1147.14 984.98 1050.83 979.97 966.09 963.68 898.83 938.82 856.23 904.44 838.21 862.39 843.57 818.3 866.96 772.73 901.59 729.78 945.88 695.85 990.07 672.42 1029.24 663.27 1065.22 671.74 1090.89 697.85 1105.76 741.42 1113.46 799.8 1111.23 869.37 1101.09 944.65 1085.59 1018.54 1065.22 1084.79 1042.23 1136.45 1016.8 1168.22 991.2 1176.22 966.95 1158.7 942.11 1118.46 919.79 1058.22 900.64 984.42 881.48 907.21 865.93 835.35 853.46 776.69 840.4 737.33 829.23 720.48 818.53 726.62 805.39 755.14 790.27 800.82 771.01 857.66 746.39 921.41 714.6 983.22 673.7 1036.92 625.63 1079.67 567.59 1105.69 500.15 1113.41 429.52 1103.47 354.8 1076.02 280.99 1034 216.83 979.97 164.92 918.22 132.15 852.97 122.76 786.24 139.05 722.79 181.2 665.25 240.83 614.08 313.23 571.84 386.79 538.74 444.6 514.36 477.91 498.41 475.98 489.48 434.57 487.54 357.17 490.13 254.03 495.45 144.72 504.71 47.85 514.29 -15.72 522.84 -31.77 532.86 4.07 540.38 85.13 544.69 189.33 549.2 293.04 549.97 367.89 546.78 390.48 543.43 353.74 536.13 264.33 524.83 145.65 513.46 29.56 498.23 -50.07 479.07 -69.51 459.92 -22.98 437.29 74.19 411.35 194.86 385.33 305.61 355.87 378.19 323.09 395.82 290.15 357 253.89 275.53 214.63 171.21 175.56 73.39 134.02 5.34 90.8 -19.82 49.05 4.74 7.09 71.87 -33.61 169 -70.39 276.34 -103.52 374.99 -131.11 473.64 -157.99 454.03 -153.66 367.16 -119.64 298.78 -87.21 238.53 -47.67 193.92 -3.57 166.29 39.05 161 79.48 176.22 113.57 209.55 135.65 257.07 144.53 313.28 137.39 377.39 112.59 442.25 70.96 504.23 14.18 565.84 -53.55 621.06 -127.83 669.22 -202.39 714.45 -270.05 752.98 -324.88 785.72 -360.81 816.37 -374.34 842.87 -363.14 866.23 -327.58 888.97 -272.72 909.75 -202.81 928.9 -125.6 948.06 -51.79 965.15 10.38 979.72 54.42 993.68 75.74 1003.95 73.39 1009.42 49.02 1012.82 4.77 1009.78 -52.33 999.3 -115.4 985.89 -179.87 964.7 -236.97 936.29 -281.32 907.51 -310.85 875.02 -321.36 842.37 -312.74 817.62 -286.51 800.64 -244.52 796.83 -190.63 811.13 -127.74 844.94 -60.84 899.98 5.86 972.01 70.53 1058.56 128.83 1152.05 178.8 1239.35 220.19 1312.63 251.52 1360.33 273.3 1374.57 285.88 1352.34 290.68 1295.42 289.53 1216.72 282.06 1127.94 271.57 1047.9 259.89 997.86 245.31 988.9 231.89 1028.12 220.77 1110.21 209.06 1220.5 200.81 1335.63 196.45 1427.91 192.45 1475.88 192.53 1465.64 196.69 1400.46 201.25 1295.34 209.63 1178.46 221.74 1085.07 233.98 1040.48 249.67 1059.92 268.83Q1059.92 268.83 1059.92 268.83" opacity="0.84"></path><path d="M948.92 622.25C1096.13 652.9 1278.7 685.04 1370.35 716.25 1317.48 744.93 1154.14 767.89 981.24 780.23 884.54 784.25 903.7 771.94 1005.93 741.07 1140.27 702.72 1232.93 651.41 1251.89 595.91 1198.14 555.44 1091.6 533.57 969.14 543.69 844.65 593.16 746.75 679.43 678.91 792.18 632 908.66 604.16 1006.52 583.24 1059.17 568.5 1053.41 548.37 986.26 517.72 873.42 487.06 751.98 447.35 656.01 404.27 609.17 367.39 621.15 339.47 681.2 333.26 767.24 347.98 862.52 395.4 937.1 472.65 976.39 547.87 979.18 610.4 942.64 623.98 877.86 564.84 792.22 435.85 699.86 269.59 611.78 135.44 526.64 88.8 454.58 163.02 396.09 313.45 344.69 459.35 303.05 500.39 267.77 396.91 234.96 208.13 203.99 60.92 173.33 61.91 142.68 208.95 113.8 395.25 88.8 504.76 66.28 477.41 52.15 348.61 50.43 194.18 55.8 109.88 77.38 131.73 115.27 246.13 156.11 401.72 204.47 540.35 249.94 633.05 274.56 661.34 274.76 641.87 240.06 585.79 168.86 525.37 66.8 479.75 -50.94 432.56 -198.2 452.97 -180.9 495.06 -14.6 525.71 98.24 562.7 171.62 609.53 189.22 661.79 148.41 732.62 68 825.4 -26 924.14 -116.29 1035.04 -175.08 1138.36 -192.64 1205.08 -170.84 1220.79 -112.63 1168.26 -31.99 1069.81 63.67 950.56 158.98 868.08 244.58 878.14 322.7 989.93 385.48 1166.83 434.58 1318.09 475.36 1362.89 508.17 1265.22 537.29 1090.74 563.89 949.91 591.6 948.92 622.25Q948.92 622.25 948.92 622.25" opacity="0.83"></path><path d="M837.92 353.4C938.92 376.39 1077.85 389.63 1196.79 394.08 1256.45 398.98 1233.01 396.2 1141.5 387.93 1011 382.87 883.59 376.4 791.36 372.82 748.22 378.95 756.81 394.73 801.35 424.44 872.35 469.34 943.48 530.5 999.62 606.18 1043.9 688.81 1063.31 774.35 1061.87 852.52 1047.67 912.44 1022.16 946.41 992.94 946.59 960.27 914.15 930.73 849.81 907.74 762.42 884.75 670.15 869.4 587.69 858.71 527.27 844.58 496.29 828.27 495.76 802.63 521.26 764.23 569.98 706.96 629.02 627.25 688.17 535.67 746.12 431.55 790.44 330.41 817.85 255.74 832.14 219.9 829.11 239.1 812.28 307.4 785.17 414.18 750.22 527.84 712.13 602.5 669.92 612.85 629.18 544.32 592.94 416.51 555.92 272.92 525.14 171.92 502.15 156.67 479.16 233.15 465.05 365.25 458.72 552.85 451.06 541.65 449.68 395.47 439.91 303.99 421.31 253.07 391.34 248.54 346.92 285.42 289.38 354.15 217.81 436.97 135.92 529.96 52.84 615.23 -26.81 686.17 -92.39 751.08 -134.74 801.07 -147.3 838.98 -125.2 873.76 -73.66 901.76 4.11 924.75 96.38 947.74 183.77 964.63 252.8 973.21 294.11 978.65 302.82 970.48 281.94 945.41 238.87 914.31 177.55 866.9 112.62 809.34 53.93 761.95 2.18 726.22 -31.71 719.48 -46.48 754.14 -46.07 832.32 -28.84 947.73 0.45 1073.02 39.46 1183.28 83.79 1242.94 128.69 1231.62 176.8 1148.2 221.4 1017.72 259.85 894.49 298.77 822.67 330.41 837.92 353.4Q837.92 353.4 837.92 353.4" opacity="0.37"></path><path d="M726.92 214.98C874.13 245.63 1049.67 290.53 1136.05 350.62 1101.43 416.15 969.82 502.89 821.66 603.93 688.34 699 608.99 783.61 570.41 830.35 555.01 827.25 541.61 764.26 510.96 651.42 480.31 529.98 435.3 432.62 397.59 380.36 383.05 377.58 414.57 409.98 507.71 454.47 615.69 512.01 714.79 553.71 726.94 570.83 618.09 584.56 430.13 575.59 282.92 544.94 283.91 514.29 429.53 464.86 608.3 398.01 731.17 327.77 748.18 238.23 693.21 140.52 593.64 55.85 514.18 -9.05 478.47 -28.74 457.68 1.05 468.95 85.98 499.61 207.42 530.26 320.26 577.39 395.67 651.29 421.25 740.12 396.97 867.42 344.87 1007.17 289.98 1102.31 229.11 1117.81 190.21 1017.41 177.79 861.11 170.83 727.91 184.33 726.92 214.98Q726.92 214.98 726.92 214.98" opacity="0.33"></path></g></svg>